<svg xmlns="http://www.w3.org/2000/svg" width="1000" height="2200" viewBox="0 0 1000 2200">
  <defs>
    <radialGradient id="glow" cx="50%" cy="50%" r="50%">
      <stop offset="0%" stop-color="#7C3AED" stop-opacity="0.06"/>
      <stop offset="100%" stop-color="#7C3AED" stop-opacity="0"/>
    </radialGradient>
    <radialGradient id="glow2" cx="50%" cy="50%" r="50%">
      <stop offset="0%" stop-color="#22D3EE" stop-opacity="0.04"/>
      <stop offset="100%" stop-color="#22D3EE" stop-opacity="0"/>
    </radialGradient>
    <linearGradient id="accent" x1="0%" y1="0%" x2="100%" y2="0%">
      <stop offset="0%" stop-color="#7C3AED"/>
      <stop offset="100%" stop-color="#A78BFA"/>
    </linearGradient>
    <linearGradient id="cyber" x1="0%" y1="0%" x2="100%" y2="0%">
      <stop offset="0%" stop-color="#22D3EE"/>
      <stop offset="100%" stop-color="#67E8F9"/>
    </linearGradient>
    <linearGradient id="contactGrad" x1="0%" y1="0%" x2="100%" y2="100%">
      <stop offset="0%" stop-color="#7C3AED" stop-opacity="0.08"/>
      <stop offset="100%" stop-color="#7C3AED" stop-opacity="0"/>
    </linearGradient>
    <linearGradient id="barGrad" x1="0%" y1="100%" x2="0%" y2="0%">
      <stop offset="0%" stop-color="#7C3AED" stop-opacity="0.15"/>
      <stop offset="100%" stop-color="#7C3AED"/>
    </linearGradient>
    <filter id="noise">
      <feTurbulence type="fractalNoise" baseFrequency="0.9" numOctaves="4" stitchTiles="stitch"/>
      <feColorMatrix type="saturate" values="0"/>
    </filter>
  </defs>

  <!-- BG -->
  <rect width="1000" height="2200" fill="#080808"/>
  <rect width="1000" height="2200" fill="#080808" filter="url(#noise)" opacity="0.015"/>

  <!-- Glow orbs -->
  <g><animateTransform attributeName="transform" type="translate" values="0,0;-20,30;0,0" dur="8s" repeatCount="indefinite"/><circle cx="800" cy="60" r="350" fill="url(#glow)"/></g>
  <g><animateTransform attributeName="transform" type="translate" values="0,0;20,-20;0,0" dur="10s" repeatCount="indefinite"/><circle cx="200" cy="2000" r="300" fill="url(#glow2)"/></g>

  <!-- ════════════════════════════════════════ HERO ════════════════════════════════════════ -->
  <text x="50" y="65" fill="#A78BFA" font-family="'JetBrains Mono',monospace" font-size="10" letter-spacing="3">FLUTTER DEVELOPER · MOBILE ENGINEER</text>

  <text x="50" y="140" fill="#FFF" font-family="system-ui,-apple-system,sans-serif" font-size="56" font-weight="800" letter-spacing="-2.5">Syed Moiz</text>
  <text x="50" y="190" fill="#FFF" font-family="system-ui,-apple-system,sans-serif" font-size="56" font-weight="800" letter-spacing="-2.5">Ali<tspan fill="url(#accent)">.</tspan></text>

  <text x="460" y="140" fill="#555" font-family="'JetBrains Mono',monospace" font-size="13">Building clean, scalable Flutter apps</text>
  <text x="460" y="162" fill="#555" font-family="'JetBrains Mono',monospace" font-size="13">with modern UI, APIs, Firebase,</text>
  <text x="460" y="184" fill="#555" font-family="'JetBrains Mono',monospace" font-size="13">and reliable state management.</text>
  <rect x="836" y="147" width="2" height="14" fill="#A78BFA"><animate attributeName="opacity" values="1;0;1" dur="1s" repeatCount="indefinite"/></rect>

  <!-- Badges -->
  <g transform="translate(50,230)">
    <rect x="0" y="0" width="116" height="28" rx="14" fill="none" stroke="rgba(34,197,94,0.3)" stroke-width="1"/>
    <circle cx="18" cy="14" r="3" fill="#4ADE80"><animate attributeName="opacity" values="1;0.4;1" dur="2s" repeatCount="indefinite"/><animate attributeName="r" values="3;2.4;3" dur="2s" repeatCount="indefinite"/></circle>
    <text x="28" y="18" fill="#4ADE80" font-family="'JetBrains Mono',monospace" font-size="10" letter-spacing="1">Open to work</text>
    <rect x="130" y="0" width="122" height="28" rx="14" fill="none" stroke="rgba(255,255,255,0.1)" stroke-width="1"/><text x="191" y="18" text-anchor="middle" fill="#666" font-family="'JetBrains Mono',monospace" font-size="10" letter-spacing="1">Flutter · Dart</text>
    <rect x="266" y="0" width="82" height="28" rx="14" fill="none" stroke="rgba(255,255,255,0.1)" stroke-width="1"/><text x="307" y="18" text-anchor="middle" fill="#666" font-family="'JetBrains Mono',monospace" font-size="10" letter-spacing="1">Firebase</text>
    <rect x="362" y="0" width="96" height="28" rx="14" fill="none" stroke="rgba(255,255,255,0.1)" stroke-width="1"/><text x="410" y="18" text-anchor="middle" fill="#666" font-family="'JetBrains Mono',monospace" font-size="10" letter-spacing="1">REST APIs</text>
    <rect x="472" y="0" width="90" height="28" rx="14" fill="none" stroke="rgba(255,255,255,0.1)" stroke-width="1"/><text x="517" y="18" text-anchor="middle" fill="#666" font-family="'JetBrains Mono',monospace" font-size="10" letter-spacing="1">Riverpod</text>
  </g>

  <g transform="translate(50,285)">
    <text x="0" y="12" fill="#444" font-family="'JetBrains Mono',monospace" font-size="12"><tspan fill="#666">✉</tspan><tspan dx="8">Email</tspan></text>
    <text x="100" y="12" fill="#444" font-family="'JetBrains Mono',monospace" font-size="12"><tspan fill="#666">▩</tspan><tspan dx="8">LinkedIn</tspan></text>
    <text x="220" y="12" fill="#444" font-family="'JetBrains Mono',monospace" font-size="12"><tspan fill="#666">◇</tspan><tspan dx="8">GitHub</tspan></text>
  </g>

  <rect x="50" y="335" width="900" height="1" fill="rgba(255,255,255,0.05)"/>

  <!-- ════════════════════════════════════════ STATS ════════════════════════════════════════ -->
  <text x="50" y="370" fill="#3a3a3a" font-family="'JetBrains Mono',monospace" font-size="9" letter-spacing="4">AT A GLANCE</text>
  <rect x="50" y="390" width="900" height="92" rx="10" fill="#0c0c0c" stroke="rgba(255,255,255,0.05)" stroke-width="1"/>
  <line x1="350" y1="390" x2="350" y2="482" stroke="rgba(255,255,255,0.04)" stroke-width="1"/>
  <line x1="650" y1="390" x2="650" y2="482" stroke="rgba(255,255,255,0.04)" stroke-width="1"/>

  <text x="200" y="445" text-anchor="middle" fill="#FFF" font-family="system-ui,-apple-system,sans-serif" font-size="38" font-weight="800" letter-spacing="-1.5">12</text>
  <text x="228" y="445" text-anchor="middle" fill="url(#accent)" font-family="system-ui,-apple-system,sans-serif" font-size="38" font-weight="800" letter-spacing="-1.5">+</text>
  <text x="200" y="468" text-anchor="middle" fill="#555" font-family="'JetBrains Mono',monospace" font-size="9" letter-spacing="2">Apps Shipped</text>

  <text x="500" y="445" text-anchor="middle" fill="#FFF" font-family="system-ui,-apple-system,sans-serif" font-size="38" font-weight="800" letter-spacing="-1.5">14</text>
  <text x="500" y="468" text-anchor="middle" fill="#555" font-family="'JetBrains Mono',monospace" font-size="9" letter-spacing="2">Tech Stack Items</text>

  <text x="800" y="445" text-anchor="middle" fill="#FFF" font-family="system-ui,-apple-system,sans-serif" font-size="38" font-weight="800" letter-spacing="-1.5">30</text>
  <text x="828" y="445" text-anchor="middle" fill="url(#accent)" font-family="system-ui,-apple-system,sans-serif" font-size="38" font-weight="800" letter-spacing="-1.5">+</text>
  <text x="800" y="468" text-anchor="middle" fill="#555" font-family="'JetBrains Mono',monospace" font-size="9" letter-spacing="2">GitHub Repos</text>

  <rect x="50" y="512" width="900" height="1" fill="rgba(255,255,255,0.05)"/>

  <!-- ════════════════════════════════════════ SKILLS ════════════════════════════════════════ -->
  <text x="50" y="548" fill="#3a3a3a" font-family="'JetBrains Mono',monospace" font-size="9" letter-spacing="4">SKILLS</text>
  <rect x="50" y="565" width="900" height="164" rx="10" fill="#0c0c0c" stroke="rgba(255,255,255,0.05)" stroke-width="1"/>
  <line x1="50" y1="606" x2="950" y2="606" stroke="rgba(255,255,255,0.03)" stroke-width="1"/>
  <line x1="50" y1="647" x2="950" y2="647" stroke="rgba(255,255,255,0.03)" stroke-width="1"/>
  <line x1="50" y1="688" x2="950" y2="688" stroke="rgba(255,255,255,0.03)" stroke-width="1"/>

  <text x="72" y="590" fill="#555" font-family="'JetBrains Mono',monospace" font-size="9" letter-spacing="2">MOBILE</text>
  <rect x="140" y="578" width="56" height="24" rx="6" fill="rgba(124,58,237,0.12)" stroke="rgba(124,58,237,0.2)" stroke-width="0.5"/><text x="168" y="594" text-anchor="middle" fill="#C4B5FD" font-family="'JetBrains Mono',monospace" font-size="10">Flutter</text>
  <rect x="202" y="578" width="42" height="24" rx="6" fill="rgba(124,58,237,0.12)" stroke="rgba(124,58,237,0.2)" stroke-width="0.5"/><text x="223" y="594" text-anchor="middle" fill="#C4B5FD" font-family="'JetBrains Mono',monospace" font-size="10">Dart</text>
  <rect x="250" y="578" width="60" height="24" rx="6" fill="rgba(124,58,237,0.12)" stroke="rgba(124,58,237,0.2)" stroke-width="0.5"/><text x="280" y="594" text-anchor="middle" fill="#C4B5FD" font-family="'JetBrains Mono',monospace" font-size="10">Riverpod</text>

  <text x="72" y="631" fill="#555" font-family="'JetBrains Mono',monospace" font-size="9" letter-spacing="2">BACKEND</text>
  <rect x="140" y="619" width="58" height="24" rx="6" fill="rgba(124,58,237,0.12)" stroke="rgba(124,58,237,0.2)" stroke-width="0.5"/><text x="169" y="635" text-anchor="middle" fill="#C4B5FD" font-family="'JetBrains Mono',monospace" font-size="10">Node.js</text>
  <rect x="204" y="619" width="58" height="24" rx="6" fill="rgba(124,58,237,0.12)" stroke="rgba(124,58,237,0.2)" stroke-width="0.5"/><text x="233" y="635" text-anchor="middle" fill="#C4B5FD" font-family="'JetBrains Mono',monospace" font-size="10">Express</text>
  <rect x="268" y="619" width="70" height="24" rx="6" fill="rgba(124,58,237,0.12)" stroke="rgba(124,58,237,0.2)" stroke-width="0.5"/><text x="303" y="635" text-anchor="middle" fill="#C4B5FD" font-family="'JetBrains Mono',monospace" font-size="10">TypeScript</text>
  <rect x="344" y="619" width="56" height="24" rx="6" fill="rgba(124,58,237,0.12)" stroke="rgba(124,58,237,0.2)" stroke-width="0.5"/><text x="372" y="635" text-anchor="middle" fill="#C4B5FD" font-family="'JetBrains Mono',monospace" font-size="10">Python</text>

  <text x="72" y="672" fill="#555" font-family="'JetBrains Mono',monospace" font-size="9" letter-spacing="2">CLOUD &amp; DATA</text>
  <rect x="184" y="660" width="62" height="24" rx="6" fill="rgba(124,58,237,0.12)" stroke="rgba(124,58,237,0.2)" stroke-width="0.5"/><text x="215" y="676" text-anchor="middle" fill="#C4B5FD" font-family="'JetBrains Mono',monospace" font-size="10">Firebase</text>
  <rect x="252" y="660" width="42" height="24" rx="6" fill="rgba(124,58,237,0.12)" stroke="rgba(124,58,237,0.2)" stroke-width="0.5"/><text x="273" y="676" text-anchor="middle" fill="#C4B5FD" font-family="'JetBrains Mono',monospace" font-size="10">Hive</text>
  <rect x="300" y="660" width="72" height="24" rx="6" fill="rgba(124,58,237,0.12)" stroke="rgba(124,58,237,0.2)" stroke-width="0.5"/><text x="336" y="676" text-anchor="middle" fill="#C4B5FD" font-family="'JetBrains Mono',monospace" font-size="10">REST APIs</text>

  <text x="72" y="713" fill="#555" font-family="'JetBrains Mono',monospace" font-size="9" letter-spacing="2">TOOLS</text>
  <rect x="132" y="701" width="34" height="24" rx="6" fill="rgba(124,58,237,0.12)" stroke="rgba(124,58,237,0.2)" stroke-width="0.5"/><text x="149" y="717" text-anchor="middle" fill="#C4B5FD" font-family="'JetBrains Mono',monospace" font-size="10">Git</text>
  <rect x="172" y="701" width="48" height="24" rx="6" fill="rgba(124,58,237,0.12)" stroke="rgba(124,58,237,0.2)" stroke-width="0.5"/><text x="196" y="717" text-anchor="middle" fill="#C4B5FD" font-family="'JetBrains Mono',monospace" font-size="10">Figma</text>
  <rect x="226" y="701" width="34" height="24" rx="6" fill="rgba(124,58,237,0.12)" stroke="rgba(124,58,237,0.2)" stroke-width="0.5"/><text x="243" y="717" text-anchor="middle" fill="#C4B5FD" font-family="'JetBrains Mono',monospace" font-size="10">Dio</text>
  <rect x="266" y="701" width="60" height="24" rx="6" fill="rgba(124,58,237,0.12)" stroke="rgba(124,58,237,0.2)" stroke-width="0.5"/><text x="296" y="717" text-anchor="middle" fill="#C4B5FD" font-family="'JetBrains Mono',monospace" font-size="10">Postman</text>

  <rect x="50" y="760" width="900" height="1" fill="rgba(255,255,255,0.05)"/>

  <!-- ════════════════════════════════════════ PROJECTS ════════════════════════════════════════ -->
  <text x="50" y="796" fill="#3a3a3a" font-family="'JetBrains Mono',monospace" font-size="9" letter-spacing="4">FEATURED PROJECTS</text>

  <rect x="50" y="815" width="900" height="105" rx="10" fill="#0c0c0c" stroke="rgba(255,255,255,0.05)" stroke-width="1"/><rect x="50" y="815" width="2" height="105" rx="1" fill="#7C3AED"/>
  <text x="74" y="848" fill="#E8E8E8" font-family="system-ui,-apple-system,sans-serif" font-size="15" font-weight="600">Blupen</text>
  <text x="74" y="872" fill="#555" font-family="'JetBrains Mono',monospace" font-size="11">Education platform designed to streamline college admissions</text>
  <text x="74" y="890" fill="#555" font-family="'JetBrains Mono',monospace" font-size="11">and track student placements with a minimalist UI.</text>
  <rect x="74" y="902" width="46" height="18" rx="4" fill="rgba(124,58,237,0.12)"/><text x="97" y="915" text-anchor="middle" fill="#A78BFA" font-family="'JetBrains Mono',monospace" font-size="8">Flutter</text>
  <rect x="126" y="902" width="34" height="18" rx="4" fill="rgba(124,58,237,0.12)"/><text x="143" y="915" text-anchor="middle" fill="#A78BFA" font-family="'JetBrains Mono',monospace" font-size="8">Dart</text>
  <rect x="166" y="902" width="64" height="18" rx="4" fill="rgba(124,58,237,0.12)"/><text x="198" y="915" text-anchor="middle" fill="#A78BFA" font-family="'JetBrains Mono',monospace" font-size="8">UX Design</text>
  <rect x="900" y="838" width="28" height="28" rx="8" fill="#0f0f0f" stroke="rgba(255,255,255,0.08)" stroke-width="1"/><text x="914" y="857" text-anchor="middle" fill="#555" font-family="system-ui,sans-serif" font-size="14">↗</text>

  <rect x="50" y="925" width="900" height="105" rx="10" fill="#0c0c0c" stroke="rgba(255,255,255,0.05)" stroke-width="1"/><rect x="50" y="925" width="2" height="105" rx="1" fill="#A78BFA"/>
  <text x="74" y="958" fill="#E8E8E8" font-family="system-ui,-apple-system,sans-serif" font-size="15" font-weight="600">Vakalat Nama</text>
  <text x="74" y="982" fill="#555" font-family="'JetBrains Mono',monospace" font-size="11">Complete legal case management application tailored for</text>
  <text x="74" y="1000" fill="#555" font-family="'JetBrains Mono',monospace" font-size="11">tracking hearing dates and organizing legal workflows.</text>
  <rect x="74" y="1012" width="46" height="18" rx="4" fill="rgba(124,58,237,0.12)"/><text x="97" y="1025" text-anchor="middle" fill="#A78BFA" font-family="'JetBrains Mono',monospace" font-size="8">Flutter</text>
  <rect x="126" y="1012" width="72" height="18" rx="4" fill="rgba(124,58,237,0.12)"/><text x="162" y="1025" text-anchor="middle" fill="#A78BFA" font-family="'JetBrains Mono',monospace" font-size="8">Architecture</text>
  <rect x="204" y="1012" width="76" height="18" rx="4" fill="rgba(124,58,237,0.12)"/><text x="242" y="1025" text-anchor="middle" fill="#A78BFA" font-family="'JetBrains Mono',monospace" font-size="8">Data Models</text>
  <rect x="900" y="948" width="28" height="28" rx="8" fill="#0f0f0f" stroke="rgba(255,255,255,0.08)" stroke-width="1"/><text x="914" y="967" text-anchor="middle" fill="#555" font-family="system-ui,sans-serif" font-size="14">↗</text>

  <rect x="50" y="1035" width="900" height="105" rx="10" fill="#0c0c0c" stroke="rgba(255,255,255,0.05)" stroke-width="1"/><rect x="50" y="1035" width="2" height="105" rx="1" fill="#7C3AED"/>
  <text x="74" y="1068" fill="#E8E8E8" font-family="system-ui,-apple-system,sans-serif" font-size="15" font-weight="600">Train-Era Fitness Club (TEFC)</text>
  <text x="74" y="1092" fill="#555" font-family="'JetBrains Mono',monospace" font-size="11">Technical integration handling complex event models,</text>
  <text x="74" y="1110" fill="#555" font-family="'JetBrains Mono',monospace" font-size="11">scheduling logic, and automated booking confirmations.</text>
  <rect x="74" y="1122" width="46" height="18" rx="4" fill="rgba(124,58,237,0.12)"/><text x="97" y="1135" text-anchor="middle" fill="#A78BFA" font-family="'JetBrains Mono',monospace" font-size="8">Flutter</text>
  <rect x="126" y="1122" width="94" height="18" rx="4" fill="rgba(124,58,237,0.12)"/><text x="173" y="1135" text-anchor="middle" fill="#A78BFA" font-family="'JetBrains Mono',monospace" font-size="8">HTML Templates</text>
  <rect x="226" y="1122" width="80" height="18" rx="4" fill="rgba(124,58,237,0.12)"/><text x="266" y="1135" text-anchor="middle" fill="#A78BFA" font-family="'JetBrains Mono',monospace" font-size="8">API Integration</text>
  <rect x="900" y="1058" width="28" height="28" rx="8" fill="#0f0f0f" stroke="rgba(255,255,255,0.08)" stroke-width="1"/><text x="914" y="1077" text-anchor="middle" fill="#555" font-family="system-ui,sans-serif" font-size="14">↗</text>

  <text x="50" y="1180" fill="#3a3a3a" font-family="'JetBrains Mono',monospace" font-size="10">Additional private repos available on request.</text>

  <rect x="50" y="1210" width="900" height="1" fill="rgba(255,255,255,0.05)"/>

  <!-- ════════════════════════════════════════ WHAT I BUILD ════════════════════════════════════════ -->
  <text x="50" y="1246" fill="#3a3a3a" font-family="'JetBrains Mono',monospace" font-size="9" letter-spacing="4">WHAT I BUILD</text>

  <rect x="50" y="1265" width="286" height="115" rx="10" fill="#0c0c0c" stroke="rgba(255,255,255,0.05)" stroke-width="1"/><rect x="50" y="1265" width="2" height="115" rx="1" fill="#7C3AED"/>
  <text x="74" y="1297" fill="#A78BFA" font-family="'JetBrains Mono',monospace" font-size="10" letter-spacing="1">📱  Mobile Apps</text>
  <text x="74" y="1322" fill="#555" font-family="'JetBrains Mono',monospace" font-size="11">Flutter apps for iOS &amp; Android —</text>
  <text x="74" y="1340" fill="#555" font-family="'JetBrains Mono',monospace" font-size="11">production-ready with smooth</text>
  <text x="74" y="1358" fill="#555" font-family="'JetBrains Mono',monospace" font-size="11">animations and performance.</text>

  <rect x="357" y="1265" width="286" height="115" rx="10" fill="#0c0c0c" stroke="rgba(255,255,255,0.05)" stroke-width="1"/><rect x="357" y="1265" width="2" height="115" rx="1" fill="#22D3EE"/>
  <text x="381" y="1297" fill="#67E8F9" font-family="'JetBrains Mono',monospace" font-size="10" letter-spacing="1">🔌  API Integration</text>
  <text x="381" y="1322" fill="#555" font-family="'JetBrains Mono',monospace" font-size="11">REST, Firebase, third-party SDKs —</text>
  <text x="381" y="1340" fill="#555" font-family="'JetBrains Mono',monospace" font-size="11">clean data layers with error</text>
  <text x="381" y="1358" fill="#555" font-family="'JetBrains Mono',monospace" font-size="11">handling and caching.</text>

  <rect x="664" y="1265" width="286" height="115" rx="10" fill="#0c0c0c" stroke="rgba(255,255,255,0.05)" stroke-width="1"/><rect x="664" y="1265" width="2" height="115" rx="1" fill="#7C3AED"/>
  <text x="688" y="1297" fill="#A78BFA" font-family="'JetBrains Mono',monospace" font-size="10" letter-spacing="1">⚡  State Management</text>
  <text x="688" y="1322" fill="#555" font-family="'JetBrains Mono',monospace" font-size="11">Riverpod-first architecture —</text>
  <text x="688" y="1340" fill="#555" font-family="'JetBrains Mono',monospace" font-size="11">scalable, testable, and</text>
  <text x="688" y="1358" fill="#555" font-family="'JetBrains Mono',monospace" font-size="11">maintainable at any app size.</text>

  <rect x="50" y="1415" width="900" height="1" fill="rgba(255,255,255,0.05)"/>

  <!-- ════════════════════════════════════════ OSS CONTRIBUTIONS ════════════════════════════════════════ -->
  <text x="50" y="1452" fill="#3a3a3a" font-family="'JetBrains Mono',monospace" font-size="9" letter-spacing="4">OPEN SOURCE CONTRIBUTIONS</text>
  <text x="50" y="1472" fill="#3a3a3a" font-family="'JetBrains Mono',monospace" font-size="9">Merged PRs and contributions across public repositories. Updated daily.</text>

  <rect x="50" y="1490" width="900" height="170" rx="10" fill="#0c0c0c" stroke="rgba(255,255,255,0.05)" stroke-width="1"/>

  <!-- OSS-CONTRIBUTIONS:START -->
  <text x="74" y="1540" fill="#555" font-family="'JetBrains Mono',monospace" font-size="11">Loading contribution data...</text>
  <!-- OSS-CONTRIBUTIONS:END -->

  <rect x="50" y="1695" width="900" height="1" fill="rgba(255,255,255,0.05)"/>

  <!-- ════════════════════════════════════════ ACTIVITY ════════════════════════════════════════ -->
  <text x="50" y="1732" fill="#3a3a3a" font-family="'JetBrains Mono',monospace" font-size="9" letter-spacing="4">GITHUB ACTIVITY</text>

  <rect x="50" y="1750" width="900" height="170" rx="10" fill="#0c0c0c" stroke="rgba(255,255,255,0.05)" stroke-width="1"/>

  <!-- Month labels -->
  <text x="80" y="1895" fill="#555" font-family="'JetBrains Mono',monospace" font-size="8" text-anchor="middle">Jan</text>
  <text x="150" y="1895" fill="#555" font-family="'JetBrains Mono',monospace" font-size="8" text-anchor="middle">Feb</text>
  <text x="220" y="1895" fill="#555" font-family="'JetBrains Mono',monospace" font-size="8" text-anchor="middle">Mar</text>
  <text x="290" y="1895" fill="#555" font-family="'JetBrains Mono',monospace" font-size="8" text-anchor="middle">Apr</text>
  <text x="360" y="1895" fill="#555" font-family="'JetBrains Mono',monospace" font-size="8" text-anchor="middle">May</text>
  <text x="430" y="1895" fill="#555" font-family="'JetBrains Mono',monospace" font-size="8" text-anchor="middle">Jun</text>
  <text x="500" y="1895" fill="#555" font-family="'JetBrains Mono',monospace" font-size="8" text-anchor="middle">Jul</text>
  <text x="570" y="1895" fill="#555" font-family="'JetBrains Mono',monospace" font-size="8" text-anchor="middle">Aug</text>
  <text x="640" y="1895" fill="#555" font-family="'JetBrains Mono',monospace" font-size="8" text-anchor="middle">Sep</text>
  <text x="710" y="1895" fill="#555" font-family="'JetBrains Mono',monospace" font-size="8" text-anchor="middle">Oct</text>
  <text x="780" y="1895" fill="#555" font-family="'JetBrains Mono',monospace" font-size="8" text-anchor="middle">Nov</text>
  <text x="850" y="1895" fill="#555" font-family="'JetBrains Mono',monospace" font-size="8" text-anchor="middle">Dec</text>

  <!-- Y-axis labels -->
  <text x="62" y="1880" fill="#3a3a3a" font-family="'JetBrains Mono',monospace" font-size="8">0</text>
  <text x="62" y="1830" fill="#3a3a3a" font-family="'JetBrains Mono',monospace" font-size="8">15</text>
  <text x="62" y="1780" fill="#3a3a3a" font-family="'JetBrains Mono',monospace" font-size="8">30</text>

  <!-- Grid lines -->
  <line x1="80" y1="1880" x2="880" y2="1880" stroke="rgba(255,255,255,0.03)" stroke-width="1"/>
  <line x1="80" y1="1830" x2="880" y2="1830" stroke="rgba(255,255,255,0.03)" stroke-width="1"/>
  <line x1="80" y1="1780" x2="880" y2="1780" stroke="rgba(255,255,255,0.03)" stroke-width="1"/>

  <!-- Bars -->
  <rect x="72" y="1865" width="14" height="15" rx="2" fill="#7C3AED"/>
  <rect x="86" y="1865" width="14" height="15" rx="2" fill="rgba(124,58,237,0.3)"/>

  <rect x="142" y="1845" width="14" height="35" rx="2" fill="#7C3AED"/>
  <rect x="156" y="1845" width="14" height="35" rx="2" fill="rgba(124,58,237,0.3)"/>

  <rect x="212" y="1855" width="14" height="25" rx="2" fill="#7C3AED"/>
  <rect x="226" y="1855" width="14" height="25" rx="2" fill="rgba(124,58,237,0.3)"/>

  <rect x="282" y="1870" width="14" height="10" rx="2" fill="#7C3AED"/>
  <rect x="296" y="1870" width="14" height="10" rx="2" fill="rgba(124,58,237,0.3)"/>

  <rect x="352" y="1835" width="14" height="45" rx="2" fill="#7C3AED"/>
  <rect x="366" y="1835" width="14" height="45" rx="2" fill="rgba(124,58,237,0.3)"/>

  <rect x="422" y="1820" width="14" height="60" rx="2" fill="#7C3AED"/>
  <rect x="436" y="1820" width="14" height="60" rx="2" fill="rgba(124,58,237,0.3)"/>

  <rect x="492" y="1810" width="14" height="70" rx="2" fill="#7C3AED"/>
  <rect x="506" y="1810" width="14" height="70" rx="2" fill="rgba(124,58,237,0.3)"/>

  <rect x="562" y="1825" width="14" height="55" rx="2" fill="#7C3AED"/>
  <rect x="576" y="1825" width="14" height="55" rx="2" fill="rgba(124,58,237,0.3)"/>

  <rect x="632" y="1840" width="14" height="40" rx="2" fill="#7C3AED"/>
  <rect x="646" y="1840" width="14" height="40" rx="2" fill="rgba(124,58,237,0.3)"/>

  <rect x="702" y="1850" width="14" height="30" rx="2" fill="#7C3AED"/>
  <rect x="716" y="1850" width="14" height="30" rx="2" fill="rgba(124,58,237,0.3)"/>

  <rect x="772" y="1860" width="14" height="20" rx="2" fill="#7C3AED"/>
  <rect x="786" y="1860" width="14" height="20" rx="2" fill="rgba(124,58,237,0.3)"/>

  <rect x="842" y="1858" width="14" height="22" rx="2" fill="#7C3AED"/>
  <rect x="856" y="1858" width="14" height="22" rx="2" fill="rgba(124,58,237,0.3)"/>

  <!-- Contribution count -->
  <text x="500" y="1795" text-anchor="middle" fill="#666" font-family="'JetBrains Mono',monospace" font-size="10">228 contributions in the last year</text>

  <rect x="50" y="1955" width="900" height="1" fill="rgba(255,255,255,0.05)"/>

  <!-- ════════════════════════════════════════ CONTACT ════════════════════════════════════════ -->
  <rect x="50" y="1980" width="900" height="150" rx="12" fill="#0c0c0c" stroke="rgba(255,255,255,0.05)" stroke-width="1"/>
  <rect x="50" y="1980" width="900" height="150" rx="12" fill="url(#contactGrad)"/>
  <rect x="50" y="1980" width="900" height="2" rx="1" fill="url(#accent)" opacity="0.4"/>

  <text x="74" y="2022" fill="#FFF" font-family="system-ui,-apple-system,sans-serif" font-size="26" font-weight="700" letter-spacing="-0.5">Let's build something.</text>
  <text x="74" y="2050" fill="#555" font-family="'JetBrains Mono',monospace" font-size="12">Open to Flutter Developer and Mobile App Engineer roles.</text>

  <rect x="74" y="2080" width="160" height="34" rx="8" fill="#7C3AED"/>
  <text x="100" y="2102" fill="#FFF" font-family="'JetBrains Mono',monospace" font-size="11">✉  Send an email</text>

  <rect x="246" y="2080" width="120" height="34" rx="8" fill="none" stroke="rgba(255,255,255,0.1)" stroke-width="1"/>
  <text x="272" y="2102" fill="#CCC" font-family="'JetBrains Mono',monospace" font-size="11">▩  LinkedIn</text>

  <rect x="378" y="2080" width="110" height="34" rx="8" fill="none" stroke="rgba(255,255,255,0.1)" stroke-width="1"/>
  <text x="402" y="2102" fill="#CCC" font-family="'JetBrains Mono',monospace" font-size="11">◇  GitHub</text>

  <rect x="50" y="2160" width="900" height="1" fill="rgba(255,255,255,0.05)"/>

  <!-- ════════════════════════════════════════ FOOTER ════════════════════════════════════════ -->
  <text x="500" y="2190" text-anchor="middle" fill="#3a3a3a" font-family="'JetBrains Mono',monospace" font-size="9" letter-spacing="3">SYED MOIZ ALI · FLUTTER DEVELOPER · 2026</text>
</svg>
