<svg xmlns="http://www.w3.org/2000/svg" width="1000" height="1150" viewBox="0 0 1000 1150">
  <defs>
    <linearGradient id="bg" x1="0%" y1="0%" x2="100%" y2="100%">
      <stop offset="0%" stop-color="#0B1121" />
      <stop offset="100%" stop-color="#1E293B" />
    </linearGradient>
    <linearGradient id="accent1" x1="0%" y1="0%" x2="100%" y2="100%">
      <stop offset="0%" stop-color="#7C3AED" />
      <stop offset="100%" stop-color="#A78BFA" />
    </linearGradient>
    <linearGradient id="accent2" x1="0%" y1="0%" x2="100%" y2="100%">
      <stop offset="0%" stop-color="#22D3EE" />
      <stop offset="100%" stop-color="#67E8F9" />
    </linearGradient>
    <linearGradient id="headerGrad" x1="0%" y1="0%" x2="100%" y2="0%">
      <stop offset="0%" stop-color="#7C3AED" />
      <stop offset="50%" stop-color="#22D3EE" />
      <stop offset="100%" stop-color="#7C3AED" />
    </linearGradient>
    <linearGradient id="cardBg" x1="0%" y1="0%" x2="0%" y2="100%">
      <stop offset="0%" stop-color="#1E293B" stop-opacity="0.95" />
      <stop offset="100%" stop-color="#0F172A" stop-opacity="0.98" />
    </linearGradient>
    <linearGradient id="pill1" x1="0%" y1="0%" x2="100%" y2="100%">
      <stop offset="0%" stop-color="#7C3AED" stop-opacity="0.25" />
      <stop offset="100%" stop-color="#6366F1" stop-opacity="0.1" />
    </linearGradient>
    <linearGradient id="pill2" x1="0%" y1="0%" x2="100%" y2="100%">
      <stop offset="0%" stop-color="#22D3EE" stop-opacity="0.2" />
      <stop offset="100%" stop-color="#06B6D4" stop-opacity="0.08" />
    </linearGradient>
    <linearGradient id="pill3" x1="0%" y1="0%" x2="100%" y2="100%">
      <stop offset="0%" stop-color="#10B981" stop-opacity="0.2" />
      <stop offset="100%" stop-color="#059669" stop-opacity="0.08" />
    </linearGradient>
    <linearGradient id="btnBg" x1="0%" y1="0%" x2="100%" y2="100%">
      <stop offset="0%" stop-color="#1E293B" />
      <stop offset="100%" stop-color="#0F172A" />
    </linearGradient>
    <filter id="shadow">
      <feDropShadow dx="0" dy="2" stdDeviation="6" flood-color="#7C3AED" flood-opacity="0.12" />
    </filter>
  </defs>

  <!-- Background -->
  <rect width="1000" height="1150" fill="url(#bg)" rx="0" />

  <!-- Subtle dot pattern overlay -->
  <g opacity="0.02">
    <pattern id="dots" x="0" y="0" width="20" height="20" patternUnits="userSpaceOnUse">
      <circle cx="2" cy="2" r="1" fill="#7C3AED" />
    </pattern>
    <rect width="1000" height="1150" fill="url(#dots)" />
  </g>

  <!-- ===== SECTION 1: HEADER ===== -->
  <!-- Decorative glow -->
  <ellipse cx="500" cy="0" rx="400" ry="120" fill="#7C3AED" opacity="0.04" />

  <!-- Name -->
  <text x="500" y="60" text-anchor="middle" fill="url(#headerGrad)" font-family="system-ui, -apple-system, sans-serif" font-size="38" font-weight="800" letter-spacing="1">Syed Moiz Ali</text>

  <!-- Tagline -->
  <text x="500" y="90" text-anchor="middle" fill="#94A3B8" font-family="system-ui, sans-serif" font-size="14" letter-spacing="2">Flutter Developer &amp; Mobile App Engineer</text>

  <!-- Contact buttons -->
  <g>
    <!-- Email -->
    <rect x="335" y="106" width="100" height="26" rx="13" fill="url(#btnBg)" stroke="#334155" stroke-width="0.5" />
    <text x="385" y="123" text-anchor="middle" fill="#CBD5E1" font-family="system-ui, sans-serif" font-size="11">&#9993; Email</text>

    <!-- LinkedIn -->
    <rect x="450" y="106" width="100" height="26" rx="13" fill="url(#btnBg)" stroke="#334155" stroke-width="0.5" />
    <text x="500" y="123" text-anchor="middle" fill="#CBD5E1" font-family="system-ui, sans-serif" font-size="11">&#9654; LinkedIn</text>

    <!-- GitHub -->
    <rect x="565" y="106" width="100" height="26" rx="13" fill="url(#btnBg)" stroke="#334155" stroke-width="0.5" />
    <text x="615" y="123" text-anchor="middle" fill="#CBD5E1" font-family="system-ui, sans-serif" font-size="11">&#9670; GitHub</text>
  </g>

  <!-- Divider -->
  <rect x="40" y="150" width="920" height="1" rx="0.5" fill="#1E293B" />

  <!-- ===== SECTION 2: ABOUT ===== -->
  <text x="500" y="190" text-anchor="middle" fill="#CBD5E1" font-family="system-ui, sans-serif" font-size="18" font-weight="700" letter-spacing="0.5">About</text>
  <rect x="460" y="198" width="80" height="2" rx="1" fill="url(#accent1)" />

  <!-- About card -->
  <rect x="40" y="215" width="920" height="85" rx="10" fill="url(#cardBg)" stroke="#334155" stroke-width="0.5" filter="url(#shadow)" />

  <circle cx="70" cy="237" r="4" fill="#7C3AED" />
  <text x="82" y="242" fill="#94A3B8" font-family="system-ui, sans-serif" font-size="13">Cross-platform mobile apps with Flutter and Dart</text>

  <circle cx="70" cy="260" r="4" fill="#22D3EE" />
  <text x="82" y="265" fill="#94A3B8" font-family="system-ui, sans-serif" font-size="13">Firebase, REST APIs, and backend integrations</text>

  <circle cx="70" cy="283" r="4" fill="#7C3AED" />
  <text x="82" y="288" fill="#94A3B8" font-family="system-ui, sans-serif" font-size="13">Clean UI, performance, state management, maintainable code</text>

  <rect x="600" y="232" width="150" height="22" rx="11" fill="#7C3AED" opacity="0.15" />
  <text x="675" y="248" text-anchor="middle" fill="#A78BFA" font-family="system-ui, sans-serif" font-size="10" font-weight="600">Open to Work</text>

  <!-- ===== SECTION 3: SKILLS ===== -->
  <text x="500" y="335" text-anchor="middle" fill="#CBD5E1" font-family="system-ui, sans-serif" font-size="18" font-weight="700" letter-spacing="0.5">Skills</text>
  <rect x="460" y="343" width="80" height="2" rx="1" fill="url(#accent2)" />

  <!-- Mobile -->
  <text x="60" y="378" fill="#64748B" font-family="system-ui, sans-serif" font-size="11" font-weight="600" letter-spacing="1">MOBILE</text>
  <rect x="120" y="365" width="72" height="24" rx="12" fill="url(#pill1)" stroke="#7C3AED" stroke-width="0.5" stroke-opacity="0.3" />
  <text x="156" y="381" text-anchor="middle" fill="#A78BFA" font-family="system-ui, sans-serif" font-size="11" font-weight="500">Flutter</text>
  <rect x="200" y="365" width="56" height="24" rx="12" fill="url(#pill1)" stroke="#7C3AED" stroke-width="0.5" stroke-opacity="0.3" />
  <text x="228" y="381" text-anchor="middle" fill="#A78BFA" font-family="system-ui, sans-serif" font-size="11" font-weight="500">Dart</text>
  <rect x="264" y="365" width="76" height="24" rx="12" fill="url(#pill1)" stroke="#7C3AED" stroke-width="0.5" stroke-opacity="0.3" />
  <text x="302" y="381" text-anchor="middle" fill="#A78BFA" font-family="system-ui, sans-serif" font-size="11" font-weight="500">Riverpod</text>

  <!-- Backend -->
  <text x="60" y="418" fill="#64748B" font-family="system-ui, sans-serif" font-size="11" font-weight="600" letter-spacing="1">BACKEND</text>
  <rect x="140" y="405" width="72" height="24" rx="12" fill="url(#pill2)" stroke="#22D3EE" stroke-width="0.5" stroke-opacity="0.3" />
  <text x="176" y="421" text-anchor="middle" fill="#67E8F9" font-family="system-ui, sans-serif" font-size="11" font-weight="500">Node.js</text>
  <rect x="220" y="405" width="68" height="24" rx="12" fill="url(#pill2)" stroke="#22D3EE" stroke-width="0.5" stroke-opacity="0.3" />
  <text x="254" y="421" text-anchor="middle" fill="#67E8F9" font-family="system-ui, sans-serif" font-size="11" font-weight="500">Express</text>
  <rect x="296" y="405" width="82" height="24" rx="12" fill="url(#pill2)" stroke="#22D3EE" stroke-width="0.5" stroke-opacity="0.3" />
  <text x="337" y="421" text-anchor="middle" fill="#67E8F9" font-family="system-ui, sans-serif" font-size="11" font-weight="500">TypeScript</text>
  <rect x="386" y="405" width="64" height="24" rx="12" fill="url(#pill2)" stroke="#22D3EE" stroke-width="0.5" stroke-opacity="0.3" />
  <text x="418" y="421" text-anchor="middle" fill="#67E8F9" font-family="system-ui, sans-serif" font-size="11" font-weight="500">Python</text>

  <!-- Cloud & Data -->
  <text x="60" y="458" fill="#64748B" font-family="system-ui, sans-serif" font-size="11" font-weight="600" letter-spacing="1">CLOUD &amp; DATA</text>
  <rect x="180" y="445" width="72" height="24" rx="12" fill="url(#pill3)" stroke="#10B981" stroke-width="0.5" stroke-opacity="0.3" />
  <text x="216" y="461" text-anchor="middle" fill="#6EE7B7" font-family="system-ui, sans-serif" font-size="11" font-weight="500">Firebase</text>
  <rect x="260" y="445" width="52" height="24" rx="12" fill="url(#pill3)" stroke="#10B981" stroke-width="0.5" stroke-opacity="0.3" />
  <text x="286" y="461" text-anchor="middle" fill="#6EE7B7" font-family="system-ui, sans-serif" font-size="11" font-weight="500">Hive</text>
  <rect x="320" y="445" width="84" height="24" rx="12" fill="url(#pill3)" stroke="#10B981" stroke-width="0.5" stroke-opacity="0.3" />
  <text x="362" y="461" text-anchor="middle" fill="#6EE7B7" font-family="system-ui, sans-serif" font-size="11" font-weight="500">REST APIs</text>

  <!-- Tools -->
  <text x="60" y="498" fill="#64748B" font-family="system-ui, sans-serif" font-size="11" font-weight="600" letter-spacing="1">TOOLS</text>
  <rect x="120" y="485" width="44" height="24" rx="12" fill="url(#pill1)" stroke="#7C3AED" stroke-width="0.5" stroke-opacity="0.3" />
  <text x="142" y="501" text-anchor="middle" fill="#A78BFA" font-family="system-ui, sans-serif" font-size="11" font-weight="500">Git</text>
  <rect x="172" y="485" width="60" height="24" rx="12" fill="url(#pill1)" stroke="#7C3AED" stroke-width="0.5" stroke-opacity="0.3" />
  <text x="202" y="501" text-anchor="middle" fill="#A78BFA" font-family="system-ui, sans-serif" font-size="11" font-weight="500">Figma</text>
  <rect x="240" y="485" width="44" height="24" rx="12" fill="url(#pill1)" stroke="#7C3AED" stroke-width="0.5" stroke-opacity="0.3" />
  <text x="262" y="501" text-anchor="middle" fill="#A78BFA" font-family="system-ui, sans-serif" font-size="11" font-weight="500">Dio</text>

  <!-- Divider -->
  <rect x="40" y="525" width="920" height="1" rx="0.5" fill="#1E293B" />

  <!-- ===== SECTION 4: WHAT I BUILD ===== -->
  <text x="500" y="560" text-anchor="middle" fill="#CBD5E1" font-family="system-ui, sans-serif" font-size="18" font-weight="700" letter-spacing="0.5">What I Build</text>
  <rect x="455" y="568" width="90" height="2" rx="1" fill="url(#accent1)" />

  <!-- Row 1 -->
  <!-- Card 1: Mobile Apps -->
  <rect x="40" y="585" width="293" height="105" rx="8" fill="url(#cardBg)" stroke="#334155" stroke-width="0.5" filter="url(#shadow)" />
  <rect x="40" y="585" width="3" height="105" rx="1.5" fill="url(#accent1)" />
  <text x="58" y="612" fill="#E2E8F0" font-family="system-ui, sans-serif" font-size="14" font-weight="600">Mobile Apps</text>
  <text x="58" y="634" fill="#94A3B8" font-family="system-ui, sans-serif" font-size="12">Android &amp; iOS apps with Flutter</text>
  <text x="58" y="653" fill="#64748B" font-family="system-ui, sans-serif" font-size="11">Cross-platform · Single codebase</text>

  <!-- Card 2: UI Engineering -->
  <rect x="353" y="585" width="294" height="105" rx="8" fill="url(#cardBg)" stroke="#334155" stroke-width="0.5" filter="url(#shadow)" />
  <rect x="353" y="585" width="3" height="105" rx="1.5" fill="url(#accent2)" />
  <text x="371" y="612" fill="#E2E8F0" font-family="system-ui, sans-serif" font-size="14" font-weight="600">UI Engineering</text>
  <text x="371" y="634" fill="#94A3B8" font-family="system-ui, sans-serif" font-size="12">Clean, responsive interfaces</text>
  <text x="371" y="653" fill="#64748B" font-family="system-ui, sans-serif" font-size="11">Pixel-perfect · Accessible design</text>

  <!-- Card 3: API Integration -->
  <rect x="667" y="585" width="293" height="105" rx="8" fill="url(#cardBg)" stroke="#334155" stroke-width="0.5" filter="url(#shadow)" />
  <rect x="667" y="585" width="3" height="105" rx="1.5" fill="url(#accent1)" />
  <text x="685" y="612" fill="#E2E8F0" font-family="system-ui, sans-serif" font-size="14" font-weight="600">API Integration</text>
  <text x="685" y="634" fill="#94A3B8" font-family="system-ui, sans-serif" font-size="12">REST APIs, auth, backend services</text>
  <text x="685" y="653" fill="#64748B" font-family="system-ui, sans-serif" font-size="11">Dio · Error handling · Caching</text>

  <!-- Row 2 -->
  <!-- Card 4: Firebase -->
  <rect x="40" y="705" width="293" height="105" rx="8" fill="url(#cardBg)" stroke="#334155" stroke-width="0.5" filter="url(#shadow)" />
  <rect x="40" y="705" width="3" height="105" rx="1.5" fill="url(#accent2)" />
  <text x="58" y="732" fill="#E2E8F0" font-family="system-ui, sans-serif" font-size="14" font-weight="600">Firebase</text>
  <text x="58" y="754" fill="#94A3B8" font-family="system-ui, sans-serif" font-size="12">Auth, database, storage, cloud</text>
  <text x="58" y="773" fill="#64748B" font-family="system-ui, sans-serif" font-size="11">Firestore · Functions · Hosting</text>

  <!-- Card 5: State Management -->
  <rect x="353" y="705" width="294" height="105" rx="8" fill="url(#cardBg)" stroke="#334155" stroke-width="0.5" filter="url(#shadow)" />
  <rect x="353" y="705" width="3" height="105" rx="1.5" fill="url(#accent1)" />
  <text x="371" y="732" fill="#E2E8F0" font-family="system-ui, sans-serif" font-size="14" font-weight="600">State Management</text>
  <text x="371" y="754" fill="#94A3B8" font-family="system-ui, sans-serif" font-size="12">Scalable logic with Riverpod</text>
  <text x="371" y="773" fill="#64748B" font-family="system-ui, sans-serif" font-size="11">Provider · Bloc · Clean architecture</text>

  <!-- Card 6: Performance -->
  <rect x="667" y="705" width="293" height="105" rx="8" fill="url(#cardBg)" stroke="#334155" stroke-width="0.5" filter="url(#shadow)" />
  <rect x="667" y="705" width="3" height="105" rx="1.5" fill="url(#accent1)" />
  <text x="685" y="732" fill="#E2E8F0" font-family="system-ui, sans-serif" font-size="14" font-weight="600">Performance</text>
  <text x="685" y="754" fill="#94A3B8" font-family="system-ui, sans-serif" font-size="12">Bug fixes, optimization, stability</text>
  <text x="685" y="773" fill="#64748B" font-family="system-ui, sans-serif" font-size="11">Profiling · Crash reduction</text>

  <!-- Divider -->
  <rect x="40" y="830" width="920" height="1" rx="0.5" fill="#1E293B" />

  <!-- ===== SECTION 5: FEATURED PROJECTS ===== -->
  <text x="500" y="865" text-anchor="middle" fill="#CBD5E1" font-family="system-ui, sans-serif" font-size="18" font-weight="700" letter-spacing="0.5">Featured Projects</text>
  <rect x="448" y="873" width="104" height="2" rx="1" fill="url(#accent2)" />

  <!-- Row 1 -->
  <!-- Card: nullfeed-flutter -->
  <rect x="40" y="890" width="445" height="110" rx="8" fill="url(#cardBg)" stroke="#334155" stroke-width="0.5" filter="url(#shadow)" />
  <rect x="40" y="890" width="3" height="110" rx="1.5" fill="url(#accent1)" />
  <text x="58" y="916" fill="#E2E8F0" font-family="system-ui, sans-serif" font-size="14" font-weight="600">nullfeed-flutter</text>
  <text x="58" y="940" fill="#94A3B8" font-family="system-ui, sans-serif" font-size="12">Bug fixes, performance, and state handling</text>
  <rect x="58" y="958" width="52" height="18" rx="9" fill="url(#pill1)" />
  <text x="84" y="971" text-anchor="middle" fill="#A78BFA" font-family="system-ui, sans-serif" font-size="9" font-weight="500">Flutter</text>
  <rect x="116" y="958" width="38" height="18" rx="9" fill="url(#pill1)" />
  <text x="135" y="971" text-anchor="middle" fill="#A78BFA" font-family="system-ui, sans-serif" font-size="9" font-weight="500">Dart</text>
  <rect x="160" y="958" width="50" height="18" rx="9" fill="url(#pill2)" />
  <text x="185" y="971" text-anchor="middle" fill="#67E8F9" font-family="system-ui, sans-serif" font-size="9" font-weight="500">Riverpod</text>
  <text x="430" y="985" text-anchor="end" fill="#64748B" font-family="system-ui, sans-serif" font-size="10">View &rarr;</text>

  <!-- Card: gunpla_hub -->
  <rect x="515" y="890" width="445" height="110" rx="8" fill="url(#cardBg)" stroke="#334155" stroke-width="0.5" filter="url(#shadow)" />
  <rect x="515" y="890" width="3" height="110" rx="1.5" fill="url(#accent2)" />
  <text x="533" y="916" fill="#E2E8F0" font-family="system-ui, sans-serif" font-size="14" font-weight="600">gunpla_hub</text>
  <text x="533" y="940" fill="#94A3B8" font-family="system-ui, sans-serif" font-size="12">Mobile app with clean Flutter structure</text>
  <rect x="533" y="958" width="52" height="18" rx="9" fill="url(#pill1)" />
  <text x="559" y="971" text-anchor="middle" fill="#A78BFA" font-family="system-ui, sans-serif" font-size="9" font-weight="500">Flutter</text>
  <rect x="591" y="958" width="38" height="18" rx="9" fill="url(#pill1)" />
  <text x="610" y="971" text-anchor="middle" fill="#A78BFA" font-family="system-ui, sans-serif" font-size="9" font-weight="500">Dart</text>
  <rect x="635" y="958" width="44" height="18" rx="9" fill="url(#pill2)" />
  <text x="657" y="971" text-anchor="middle" fill="#67E8F9" font-family="system-ui, sans-serif" font-size="9" font-weight="500">REST</text>
  <text x="905" y="985" text-anchor="end" fill="#64748B" font-family="system-ui, sans-serif" font-size="10">View &rarr;</text>

  <!-- Row 2 -->
  <!-- Card: KiranaInventoryTracker -->
  <rect x="40" y="1015" width="445" height="110" rx="8" fill="url(#cardBg)" stroke="#334155" stroke-width="0.5" filter="url(#shadow)" />
  <rect x="40" y="1015" width="3" height="110" rx="1.5" fill="url(#accent1)" />
  <text x="58" y="1041" fill="#E2E8F0" font-family="system-ui, sans-serif" font-size="14" font-weight="600">KiranaInventoryTracker</text>
  <text x="58" y="1065" fill="#94A3B8" font-family="system-ui, sans-serif" font-size="12">Inventory tracking for business workflows</text>
  <rect x="58" y="1083" width="52" height="18" rx="9" fill="url(#pill1)" />
  <text x="84" y="1096" text-anchor="middle" fill="#A78BFA" font-family="system-ui, sans-serif" font-size="9" font-weight="500">Flutter</text>
  <rect x="116" y="1083" width="38" height="18" rx="9" fill="url(#pill1)" />
  <text x="135" y="1096" text-anchor="middle" fill="#A78BFA" font-family="system-ui, sans-serif" font-size="9" font-weight="500">Dart</text>
  <rect x="160" y="1083" width="38" height="18" rx="9" fill="url(#pill3)" />
  <text x="179" y="1096" text-anchor="middle" fill="#6EE7B7" font-family="system-ui, sans-serif" font-size="9" font-weight="500">Hive</text>
  <text x="430" y="1110" text-anchor="end" fill="#64748B" font-family="system-ui, sans-serif" font-size="10">View &rarr;</text>

  <!-- Card: flockui -->
  <rect x="515" y="1015" width="445" height="110" rx="8" fill="url(#cardBg)" stroke="#334155" stroke-width="0.5" filter="url(#shadow)" />
  <rect x="515" y="1015" width="3" height="110" rx="1.5" fill="url(#accent2)" />
  <text x="533" y="1041" fill="#E2E8F0" font-family="system-ui, sans-serif" font-size="14" font-weight="600">flockui</text>
  <text x="533" y="1065" fill="#94A3B8" font-family="system-ui, sans-serif" font-size="12">Flutter UI components and reusable work</text>
  <rect x="533" y="1083" width="52" height="18" rx="9" fill="url(#pill1)" />
  <text x="559" y="1096" text-anchor="middle" fill="#A78BFA" font-family="system-ui, sans-serif" font-size="9" font-weight="500">Flutter</text>
  <rect x="591" y="1083" width="38" height="18" rx="9" fill="url(#pill1)" />
  <text x="610" y="1096" text-anchor="middle" fill="#A78BFA" font-family="system-ui, sans-serif" font-size="9" font-weight="500">Dart</text>
  <rect x="635" y="1083" width="30" height="18" rx="9" fill="url(#pill2)" />
  <text x="650" y="1096" text-anchor="middle" fill="#67E8F9" font-family="system-ui, sans-serif" font-size="9" font-weight="500">UI</text>
  <text x="905" y="1110" text-anchor="end" fill="#64748B" font-family="system-ui, sans-serif" font-size="10">View &rarr;</text>

  <!-- Bottom decorative accent -->
  <rect x="40" y="1145" width="920" height="1" rx="0.5" fill="#334155" opacity="0.5" />
  <circle cx="500" cy="1147" r="80" fill="#7C3AED" opacity="0.03" />
</svg>
